<svg width="15" height="15" viewBox="0 0 15 15" fill="none" xmlns="http://www.w3.org/2000/svg">
<path d="M9.32784 2.49108L12.3788 5.54208L4.65584 13.2661L1.60584 10.2111L9.32784 2.49108ZM14.6948 1.75508L13.3338 0.39408C13.0807 0.141269 12.7376 -0.000732422 12.3798 -0.000732422C12.0221 -0.000732422 11.679 0.141269 11.4258 0.39408L10.1258 1.69408L13.1768 4.74508L14.6968 3.22508C14.8914 3.02981 15.0004 2.7653 15.0001 2.48967C14.9997 2.21403 14.8899 1.94982 14.6948 1.75508ZM0.00883962 14.5041C-0.00401306 14.5616 -0.00200319 14.6214 0.0146797 14.678C0.0313626 14.7345 0.0621686 14.7858 0.104193 14.8272C0.146217 14.8685 0.198074 14.8984 0.254874 14.9142C0.311674 14.9299 0.371544 14.9309 0.42884 14.9171L3.82884 14.0931L0.77984 11.0411L0.00883962 14.5041Z" fill="#919BB0"/>
</svg>
