<svg width="16" height="16" viewBox="0 0 16 16" fill="none" xmlns="http://www.w3.org/2000/svg">
<path d="M14.1875 6.45545H8.54746V0.816447C8.50038 0.57746 8.36868 0.363472 8.17654 0.213763C7.98439 0.0640545 7.7447 -0.0113303 7.50146 0.00144659C7.25805 -0.0115781 7.01811 0.0636926 6.82576 0.213423C6.63341 0.363153 6.50156 0.577281 6.45446 0.816447V6.45645H0.815457C0.576833 6.50372 0.363221 6.63536 0.213734 6.82727C0.0642462 7.01918 -0.0111122 7.25851 0.00145706 7.50145C-0.0116072 7.74472 0.0635232 7.98453 0.213053 8.17687C0.362583 8.3692 0.576476 8.50113 0.815457 8.54845H6.45546V14.1884C6.50296 14.4271 6.63484 14.6406 6.82694 14.7899C7.01904 14.9392 7.2585 15.0143 7.50146 15.0014C7.74473 15.0145 7.98454 14.9394 8.17688 14.7899C8.36921 14.6403 8.50114 14.4264 8.54846 14.1874V8.54845H14.1885C14.4273 8.50092 14.6409 8.3689 14.7902 8.17659C14.9396 7.98428 15.0146 7.74457 15.0015 7.50145C15.0143 7.25834 14.939 7.01877 14.7895 6.82665C14.64 6.63453 14.4263 6.50274 14.1875 6.45545Z" fill="black"/>
</svg>
